<svg width="81" height="14" viewBox="0 0 81 14" fill="none" xmlns="http://www.w3.org/2000/svg">
<path d="M7 0L8.5716 4.83688H13.6574L9.5429 7.82624L11.1145 12.6631L7 9.67376L2.8855 12.6631L4.4571 7.82624L0.342604 4.83688H5.4284L7 0Z" fill="#FFD600"/>
<path d="M23.5454 0L25.117 4.83688H30.2028L26.0883 7.82624L27.6599 12.6631L23.5454 9.67376L19.4309 12.6631L21.0025 7.82624L16.888 4.83688H21.9738L23.5454 0Z" fill="#FFD600"/>
<path d="M40.0908 0L41.6624 4.83688H46.7482L42.6337 7.82624L44.2053 12.6631L40.0908 9.67376L35.9763 12.6631L37.5479 7.82624L33.4334 4.83688H38.5192L40.0908 0Z" fill="#FFD600"/>
<path d="M56.6362 0L58.2078 4.83688H63.2936L59.1791 7.82624L60.7507 12.6631L56.6362 9.67376L52.5217 12.6631L54.0933 7.82624L49.9788 4.83688H55.0646L56.6362 0Z" fill="#FFD600"/>
<path d="M73.1816 0L74.7532 4.83688H79.839L75.7245 7.82624L77.2961 12.6631L73.1816 9.67376L69.0671 12.6631L70.6387 7.82624L66.5242 4.83688H71.61L73.1816 0Z" fill="#FFD600"/>
</svg>
